<?xml version="1.0" encoding="utf-8"?>
<svg xmlns="http://www.w3.org/2000/svg" xmlns:xlink="http://www.w3.org/1999/xlink" style="margin: auto; background: transparent; display: block; z-index: 1; position: relative; shape-rendering: auto;" width="1440" height="788" preserveAspectRatio="xMidYMid" viewBox="0 0 1440 788">
<g transform=""><path id="path0" d="M 295.91151491645826 270.55983591812264
c 0 35.61279333603613 -8.713768582221604 10.229206596521015 -18.942975178742618 10.229206596521015
S 258.025564558973 306.1726292541588 258.025564558973 270.55983591812264
s 8.713768582221604 -10.229206596521015 18.942975178742618 -10.229206596521015
S 295.91151491645826 234.9470425820865 295.91151491645826 270.55983591812264
z" fill="none" stroke="none"></path>
<circle cx="0" cy="0" r="4.154703032144349" fill="#de9dd6">
  <animateMotion begin="-1.6418257994441499s" dur="10s" repeatCount="indefinite">
    <mpath xlink:href="#path0"></mpath>
  </animateMotion>
</circle><path id="path1" d="M 338.6466992448764 489.01333712460934
c 0 19.872864070652113 -4.8625092938829635 5.70816308412348 -10.570672378006442 5.70816308412348
S 317.5053544888635 508.88620119526144 317.5053544888635 489.01333712460934
s 4.8625092938829635 -5.70816308412348 10.570672378006442 -5.70816308412348
S 338.6466992448764 469.14047305395724 338.6466992448764 489.01333712460934
z" fill="none" stroke="none"></path>
<circle cx="0" cy="0" r="4.069742438193619" fill="#9df871">
  <animateMotion begin="-9.362529858260526s" dur="10s" repeatCount="indefinite">
    <mpath xlink:href="#path1"></mpath>
  </animateMotion>
</circle><path id="path2" d="M 909.9176330074782 344.11402947174605
c 0 20.122013603256203 -4.923471413562687 5.77972731157359 -10.703198725136279 5.77972731157359
S 888.5112355572056 364.23604307500227 888.5112355572056 344.11402947174605
s 4.923471413562687 -5.77972731157359 10.703198725136279 -5.77972731157359
S 909.9176330074782 323.99201586848983 909.9176330074782 344.11402947174605
z" fill="none" stroke="none"></path>
<circle cx="0" cy="0" r="4.968122188648925" fill="#e0ff77">
  <animateMotion begin="-3.4918088786338464s" dur="10s" repeatCount="indefinite">
    <mpath xlink:href="#path2"></mpath>
  </animateMotion>
</circle><path id="path3" d="M 184.03895387948552 155.5955596156687
c 0 34.51151667979642 -8.444307272716145 9.912882450579824 -18.35718972329597 9.912882450579824
S 147.3245744328936 190.1070762954651 147.3245744328936 155.5955596156687
s 8.444307272716145 -9.912882450579824 18.35718972329597 -9.912882450579824
S 184.03895387948552 121.08404293587228 184.03895387948552 155.5955596156687
z" fill="none" stroke="none"></path>
<circle cx="0" cy="0" r="5.903761373707697" fill="#ff708e">
  <animateMotion begin="-8.590441896074974s" dur="10s" repeatCount="indefinite">
    <mpath xlink:href="#path3"></mpath>
  </animateMotion>
</circle><path id="path4" d="M 1300.3608835277298 185.7625634362742
c 0 25.23521898564195 -6.174574858188987 7.248413963960986 -13.422988822149973 7.248413963960986
S 1273.5149058834297 210.99778242191616 1273.5149058834297 185.7625634362742
s 6.174574858188987 -7.248413963960986 13.422988822149973 -7.248413963960986
S 1300.3608835277298 160.52734445063226 1300.3608835277298 185.7625634362742
z" fill="none" stroke="none"></path>
<circle cx="0" cy="0" r="7.1675723981271675" fill="#9df871">
  <animateMotion begin="-2.490547751505081s" dur="10s" repeatCount="indefinite">
    <mpath xlink:href="#path4"></mpath>
  </animateMotion>
</circle><path id="path5" d="M 1196.324044998038 649.0806510186719
c 0 33.25074605997567 -8.135820844462131 9.550746208716417 -17.68656705317855 9.550746208716417
S 1160.950910891681 682.3313970786476 1160.950910891681 649.0806510186719
s 8.135820844462131 -9.550746208716417 17.68656705317855 -9.550746208716417
S 1196.324044998038 615.8299049586963 1196.324044998038 649.0806510186719
z" fill="none" stroke="none"></path>
<circle cx="0" cy="0" r="4.646663760604707" fill="#e0ff77">
  <animateMotion begin="-0.18826367848275627s" dur="10s" repeatCount="indefinite">
    <mpath xlink:href="#path5"></mpath>
  </animateMotion>
</circle><path id="path6" d="M 464.6539163920583 653.9122212308322
c 0 28.132269013337833 -6.8834275245401075 8.080545354894909 -14.963972879435017 8.080545354894909
S 434.7259706331883 682.04449024417 434.7259706331883 653.9122212308322
s 6.8834275245401075 -8.080545354894909 14.963972879435017 -8.080545354894909
S 464.6539163920583 625.7799522174944 464.6539163920583 653.9122212308322
z" fill="none" stroke="none"></path>
<circle cx="0" cy="0" r="6.674798441920621" fill="#51cacc">
  <animateMotion begin="-2.200536293951252s" dur="10s" repeatCount="indefinite">
    <mpath xlink:href="#path6"></mpath>
  </animateMotion>
</circle><path id="path7" d="M 637.9605906162972 92.72632133790997
c 0 27.192535585863343 -6.65349274973252 7.8106219235990455 -14.464114673331565 7.8106219235990455
S 609.0323612696341 119.9188569237733 609.0323612696341 92.72632133790997
s 6.65349274973252 -7.8106219235990455 14.464114673331565 -7.8106219235990455
S 637.9605906162972 65.53378575204663 637.9605906162972 92.72632133790997
z" fill="none" stroke="none"></path>
<circle cx="0" cy="0" r="4.461415482857455" fill="#51cacc">
  <animateMotion begin="-5.68003402478843s" dur="10s" repeatCount="indefinite">
    <mpath xlink:href="#path7"></mpath>
  </animateMotion>
</circle><path id="path8" d="M 493.74573628336407 167.0247460148492
c 0 22.398387842105702 -5.48045659966416 6.433579486562276 -11.914036086226435 6.433579486562276
S 469.91766411091123 189.4231338569549 469.91766411091123 167.0247460148492
s 5.48045659966416 -6.433579486562276 11.914036086226435 -6.433579486562276
S 493.74573628336407 144.6263581727435 493.74573628336407 167.0247460148492
z" fill="none" stroke="none"></path>
<circle cx="0" cy="0" r="7.080330659026584" fill="#de9dd6">
  <animateMotion begin="-1.269991702131883s" dur="10s" repeatCount="indefinite">
    <mpath xlink:href="#path8"></mpath>
  </animateMotion>
</circle><path id="path9" d="M 679.7263616966486 351.8149869425955
c 0 27.79380561369679 -6.80061201186198 7.983327144359717 -14.783939156221697 7.983327144359717
S 650.1584833842053 379.6087925562923 650.1584833842053 351.8149869425955
s 6.80061201186198 -7.983327144359717 14.783939156221697 -7.983327144359717
S 679.7263616966486 324.0211813288987 679.7263616966486 351.8149869425955
z" fill="none" stroke="none"></path>
<circle cx="0" cy="0" r="7.505649610312893" fill="#9df871">
  <animateMotion begin="-1.8739928859175414s" dur="10s" repeatCount="indefinite">
    <mpath xlink:href="#path9"></mpath>
  </animateMotion>
</circle><path id="path10" d="M 846.3691247789001 298.68635413367565
c 0 24.614077477097066 -6.022593425247154 7.07000097746405 -13.092594402711203 7.07000097746405
S 820.1839359734776 323.3004316107727 820.1839359734776 298.68635413367565
s 6.022593425247154 -7.07000097746405 13.092594402711203 -7.07000097746405
S 846.3691247789001 274.0722766565786 846.3691247789001 298.68635413367565
z" fill="none" stroke="none"></path>
<circle cx="0" cy="0" r="5.908484136250787" fill="#de9dd6">
  <animateMotion begin="-7.423924556073502s" dur="10s" repeatCount="indefinite">
    <mpath xlink:href="#path10"></mpath>
  </animateMotion>
</circle><path id="path11" d="M 576.2101080380289 598.8755088234844
c 0 22.524396319934567 -5.511288461260585 6.469773411045035 -11.98106187230562 6.469773411045035
S 552.2479842934176 621.399905143419 552.2479842934176 598.8755088234844
s 5.511288461260585 -6.469773411045035 11.98106187230562 -6.469773411045035
S 576.2101080380289 576.3511125035499 576.2101080380289 598.8755088234844
z" fill="none" stroke="none"></path>
<circle cx="0" cy="0" r="4.931671476612658" fill="#9df871">
  <animateMotion begin="-2.9979430686985076s" dur="10s" repeatCount="indefinite">
    <mpath xlink:href="#path11"></mpath>
  </animateMotion>
</circle><path id="path12" d="M 656.6995272801263 23.933703020419173
c 0 23.383264782868164 -5.721437127723061 6.716469671674899 -12.43790679939796 6.716469671674899
S 631.8237136813303 47.31696780328734 631.8237136813303 23.933703020419173
s 5.721437127723061 -6.716469671674899 12.43790679939796 -6.716469671674899
S 656.6995272801263 0.5504382375510097 656.6995272801263 23.933703020419173
z" fill="none" stroke="none"></path>
<circle cx="0" cy="0" r="5.7513938416711685" fill="#e0ff77">
  <animateMotion begin="-1.9962266298825537s" dur="10s" repeatCount="indefinite">
    <mpath xlink:href="#path12"></mpath>
  </animateMotion>
</circle><path id="path13" d="M 110.67098618470575 130.43086389098607
c 0 27.71379112297088 -6.781033998173725 7.960344258725677 -14.741378256899402 7.960344258725677
S 81.18822967090696 158.14465501395696 81.18822967090696 130.43086389098607
s 6.781033998173725 -7.960344258725677 14.741378256899402 -7.960344258725677
S 110.67098618470575 102.7170727680152 110.67098618470575 130.43086389098607
z" fill="none" stroke="none"></path>
<circle cx="0" cy="0" r="4.287266410512076" fill="#de9dd6">
  <animateMotion begin="-5.065884257821254s" dur="10s" repeatCount="indefinite">
    <mpath xlink:href="#path13"></mpath>
  </animateMotion>
</circle><path id="path14" d="M 1112.3983912567994 152.99992020793883
c 0 34.49968827808005 -8.441413089317459 9.909484930937888 -18.350898020255347 9.909484930937888
S 1075.6965952162889 187.49960848601887 1075.6965952162889 152.99992020793883
s 8.441413089317459 -9.909484930937888 18.350898020255347 -9.909484930937888
S 1112.3983912567994 118.50023192985878 1112.3983912567994 152.99992020793883
z" fill="none" stroke="none"></path>
<circle cx="0" cy="0" r="5.473043688519302" fill="#9df871">
  <animateMotion begin="-0.6380210994187907s" dur="10s" repeatCount="indefinite">
    <mpath xlink:href="#path14"></mpath>
  </animateMotion>
</circle><path id="path15" d="M 1160.9679057829082 529.0591538881093
c 0 29.39795526054971 -7.1931167126876945 8.444093532285555 -15.63721024497325 8.444093532285555
S 1129.693485292962 558.457109148659 1129.693485292962 529.0591538881093
s 7.1931167126876945 -8.444093532285555 15.63721024497325 -8.444093532285555
S 1160.9679057829082 499.6611986275596 1160.9679057829082 529.0591538881093
z" fill="none" stroke="none"></path>
<circle cx="0" cy="0" r="7.065089304067633" fill="#51cacc">
  <animateMotion begin="-1.8289998831824206s" dur="10s" repeatCount="indefinite">
    <mpath xlink:href="#path15"></mpath>
  </animateMotion>
</circle><path id="path16" d="M 1060.430636580168 415.1286997814621
c 0 31.43919276727334 -7.692568443056242 9.030406433152981 -16.72297487620922 9.030406433152981
S 1026.9846868277496 446.5678925487355 1026.9846868277496 415.1286997814621
s 7.692568443056242 -9.030406433152981 16.72297487620922 -9.030406433152981
S 1060.430636580168 383.68950701418873 1060.430636580168 415.1286997814621
z" fill="none" stroke="none"></path>
<circle cx="0" cy="0" r="4.465097191181403" fill="#de9dd6">
  <animateMotion begin="-4.485285940776047s" dur="10s" repeatCount="indefinite">
    <mpath xlink:href="#path16"></mpath>
  </animateMotion>
</circle><path id="path17" d="M 252.81843770230606 43.07807590500508
c 0 37.078688453501435 -9.072445047133328 10.650261577069562 -19.72270662420289 10.650261577069562
S 213.37302445390029 80.1567643585065 213.37302445390029 43.07807590500508
s 9.072445047133328 -10.650261577069562 19.72270662420289 -10.650261577069562
S 252.81843770230606 5.999387451503644 252.81843770230606 43.07807590500508
z" fill="none" stroke="none"></path>
<circle cx="0" cy="0" r="6.45140837773625" fill="#e0ff77">
  <animateMotion begin="-8.923743668755478s" dur="10s" repeatCount="indefinite">
    <mpath xlink:href="#path17"></mpath>
  </animateMotion>
</circle><path id="path18" d="M 694.4581129809138 341.6068706062868
c 0 32.09027064155255 -7.851874731443708 9.217418162999136 -17.069292894442846 9.217418162999136
S 660.3195271920282 373.69714124783934 660.3195271920282 341.6068706062868
s 7.851874731443708 -9.217418162999136 17.069292894442846 -9.217418162999136
S 694.4581129809138 309.51659996473427 694.4581129809138 341.6068706062868
z" fill="none" stroke="none"></path>
<circle cx="0" cy="0" r="5.029373559006677" fill="#51cacc">
  <animateMotion begin="-0.025780304380043084s" dur="10s" repeatCount="indefinite">
    <mpath xlink:href="#path18"></mpath>
  </animateMotion>
</circle><path id="path19" d="M 862.9522614933372 323.6567553415639
c 0 31.851480064440775 -7.793447249809976 9.148829380211712 -16.942276630021688 9.148829380211712
S 829.067708233294 355.50823540600464 829.067708233294 323.6567553415639
s 7.793447249809976 -9.148829380211712 16.942276630021688 -9.148829380211712
S 862.9522614933372 291.80527527712314 862.9522614933372 323.6567553415639
z" fill="none" stroke="none"></path>
<circle cx="0" cy="0" r="5.429995973493268" fill="#ff708e">
  <animateMotion begin="-9.334725219412592s" dur="10s" repeatCount="indefinite">
    <mpath xlink:href="#path19"></mpath>
  </animateMotion>
</circle><path id="path20" d="M 1056.4463747616312 454.27295405533664
c 0 22.708564966275265 -5.556351002386501 6.522672915845023 -12.079023918231524 6.522672915845023
S 1032.2883269251681 476.9815190216119 1032.2883269251681 454.27295405533664
s 5.556351002386501 -6.522672915845023 12.079023918231524 -6.522672915845023
S 1056.4463747616312 431.56438908906136 1056.4463747616312 454.27295405533664
z" fill="none" stroke="none"></path>
<circle cx="0" cy="0" r="5.63514863716562" fill="#51cacc">
  <animateMotion begin="-5.807531762103649s" dur="10s" repeatCount="indefinite">
    <mpath xlink:href="#path20"></mpath>
  </animateMotion>
</circle><path id="path21" d="M 152.52560207844326 581.4005122336318
c 0 22.73105988446768 -5.561855078114431 6.529134222134333 -12.090989300248765 6.529134222134333
S 128.34362347794573 604.1315721180995 128.34362347794573 581.4005122336318
s 5.561855078114431 -6.529134222134333 12.090989300248765 -6.529134222134333
S 152.52560207844326 558.6694523491642 152.52560207844326 581.4005122336318
z" fill="none" stroke="none"></path>
<circle cx="0" cy="0" r="5.558916266489938" fill="#51cacc">
  <animateMotion begin="-7.56350444765836s" dur="10s" repeatCount="indefinite">
    <mpath xlink:href="#path21"></mpath>
  </animateMotion>
</circle><path id="path22" d="M 1259.0204668607398 379.16443791107395
c 0 28.886418340150648 -7.067953423653881 8.297162714724122 -15.365116138378003 8.297162714724122
S 1228.2902345839839 408.0508562512246 1228.2902345839839 379.16443791107395
s 7.067953423653881 -8.297162714724122 15.365116138378003 -8.297162714724122
S 1259.0204668607398 350.2780195709233 1259.0204668607398 379.16443791107395
z" fill="none" stroke="none"></path>
<circle cx="0" cy="0" r="6.129328602781703" fill="#de9dd6">
  <animateMotion begin="-6.589249439156637s" dur="10s" repeatCount="indefinite">
    <mpath xlink:href="#path22"></mpath>
  </animateMotion>
</circle><path id="path23" d="M 1133.633503447186 501.6425049585009
c 0 21.459118192074456 -5.25063530231609 6.163789267936281 -11.41442457025237 6.163789267936281
S 1110.8046543066814 523.1016231505754 1110.8046543066814 501.6425049585009
s 5.25063530231609 -6.163789267936281 11.41442457025237 -6.163789267936281
S 1133.633503447186 480.18338676642645 1133.633503447186 501.6425049585009
z" fill="none" stroke="none"></path>
<circle cx="0" cy="0" r="4.863375667970594" fill="#9df871">
  <animateMotion begin="-1.4677241492427617s" dur="10s" repeatCount="indefinite">
    <mpath xlink:href="#path23"></mpath>
  </animateMotion>
</circle><path id="path24" d="M 819.5389931769128 43.48349532787581
c 0 36.915356503601174 -9.032480846625818 10.603347080821614 -19.63582792744743 10.603347080821614
S 780.267337322018 80.39885183147697 780.267337322018 43.48349532787581
s 9.032480846625818 -10.603347080821614 19.63582792744743 -10.603347080821614
S 819.5389931769128 6.568138824274634 819.5389931769128 43.48349532787581
z" fill="none" stroke="none"></path>
<circle cx="0" cy="0" r="5.45468052304677" fill="#51cacc">
  <animateMotion begin="-7.1595862024381995s" dur="10s" repeatCount="indefinite">
    <mpath xlink:href="#path24"></mpath>
  </animateMotion>
</circle><path id="path25" d="M 809.2648157450672 595.6270931524393
c 0 31.141853992410926 -7.61981533856863 8.945000614841437 -16.564815953410065 8.945000614841437
S 776.135183838247 626.7689471448502 776.135183838247 595.6270931524393
s 7.61981533856863 -8.945000614841437 16.564815953410065 -8.945000614841437
S 809.2648157450672 564.4852391600284 809.2648157450672 595.6270931524393
z" fill="none" stroke="none"></path>
<circle cx="0" cy="0" r="7.647139573079329" fill="#de9dd6">
  <animateMotion begin="-9.47598545479883s" dur="10s" repeatCount="indefinite">
    <mpath xlink:href="#path25"></mpath>
  </animateMotion>
</circle><path id="path26" d="M 519.8494943747876 23.181955871569528
c 0 28.519463445118813 -6.978166587635453 8.191760776789447 -15.1699273644249 8.191760776789447
S 489.50963964593774 51.701419316688344 489.50963964593774 23.181955871569528
s 6.978166587635453 -8.191760776789447 15.1699273644249 -8.191760776789447
S 519.8494943747876 -5.337507573549285 519.8494943747876 23.181955871569528
z" fill="none" stroke="none"></path>
<circle cx="0" cy="0" r="6.786978013792269" fill="#ff708e">
  <animateMotion begin="-2.1496968493788104s" dur="10s" repeatCount="indefinite">
    <mpath xlink:href="#path26"></mpath>
  </animateMotion>
</circle><path id="path27" d="M 951.7946311968351 712.5443524019706
c 0 26.526831819514214 -6.490607785625818 7.619409139647701 -14.110016925273518 7.619409139647701
S 923.5745973462881 739.0711842214848 923.5745973462881 712.5443524019706
s 6.490607785625818 -7.619409139647701 14.110016925273518 -7.619409139647701
S 951.7946311968351 686.0175205824564 951.7946311968351 712.5443524019706
z" fill="none" stroke="none"></path>
<circle cx="0" cy="0" r="4.870102338953097" fill="#9df871">
  <animateMotion begin="-1.7384509870254639s" dur="10s" repeatCount="indefinite">
    <mpath xlink:href="#path27"></mpath>
  </animateMotion>
</circle><path id="path28" d="M 93.79126263960124 715.8379630206466
c 0 23.95327536047591 -5.860907800967509 6.880196114179252 -12.74110391514676 6.880196114179252
S 68.30905480930771 739.7912383811225 68.30905480930771 715.8379630206466
s 5.860907800967509 -6.880196114179252 12.74110391514676 -6.880196114179252
S 93.79126263960124 691.8846876601707 93.79126263960124 715.8379630206466
z" fill="none" stroke="none"></path>
<circle cx="0" cy="0" r="4.0814558262287655" fill="#9df871">
  <animateMotion begin="-7.421660840531084s" dur="10s" repeatCount="indefinite">
    <mpath xlink:href="#path28"></mpath>
  </animateMotion>
</circle><path id="path29" d="M 195.08204066687713 157.24511878955232
c 0 33.104378457671075 -8.100007494962071 9.508704450607649 -17.60871194556972 9.508704450607649
S 159.8646167757377 190.34949724722338 159.8646167757377 157.24511878955232
s 8.100007494962071 -9.508704450607649 17.60871194556972 -9.508704450607649
S 195.08204066687713 124.14074033188125 195.08204066687713 157.24511878955232
z" fill="none" stroke="none"></path>
<circle cx="0" cy="0" r="7.138994653926705" fill="#e0ff77">
  <animateMotion begin="-4.458853439909074s" dur="10s" repeatCount="indefinite">
    <mpath xlink:href="#path29"></mpath>
  </animateMotion>
</circle></g>
</svg>