<svg id="Laag_1" data-name="Laag 1" xmlns="http://www.w3.org/2000/svg" viewBox="0 0 200 200"><defs><style>.cls-1{fill:#cacaca}.cls-2{fill:#fff}.cls-3{fill:#666}.cls-4{fill:#599bff}.cls-5{fill:#e4e4e4}.cls-6{fill:#1b6eff}.cls-7{fill:#0900d6}.cls-8{fill:#9abbff}.cls-10{fill:gold}.cls-11{fill:#aeaeae}</style></defs><circle class="cls-1" cx="100.38" cy="111.66" r="73.5"/><path class="cls-2" d="M146.9 92.77a15.5 15.5 0 0 0-.21-1.65h-.84c-4.79 0-7.63-3.19-7.63-6.6a6.56 6.56 0 0 1 1.71-4.36 13 13 0 0 0-4.5-1.89v-1.85c-5.5 3.33-7.54 10.86-16.22 10.86a9.53 9.53 0 0 1-7.48-3.4 11 11 0 0 1-2.21-6.78c0-7.24 5.73-6.26 5.73-13.15 0-1.74-.3-3.45-.3-4.86a13.38 13.38 0 0 1 .13-1.8c.85-5.63 7.54-10.06 13.3-10.42-4.41-3.5-25.38-14.35-44.85 8.32 6 10.16 22.87 15.54 22.87 27.82 0 15.94-10 24.91-19.64 24.91-6.16 0-13-3.49-17.23-9.09-.87 4.65-1.91 8.71-3.54 11.71-.13.24-.26.47-.4.69a35.7 35.7 0 0 1-3.21 4.44c-1.38 1.65-2.85 3.18-4.34 4.67-3.6 3.6-7.29 7-10 11.4a26.41 26.41 0 0 0-3.53 9.79 36.52 36.52 0 0 0-.45 5.61A30.14 30.14 0 0 0 51.38 167a74 74 0 0 0 11.79 8.53h71.47v-.36c0-7.28-3.57-13.31-10.77-14.8 0-.26.09-.53.14-.79a45.3 45.3 0 0 0 1.74-9.12 16.66 16.66 0 0 1-.66-4.74.93.93 0 0 1 0-.1 18.7 18.7 0 0 1 3.17-11.23q1.78-11.74 3.23-23.55c9.08-1.07 14.37-7.11 15.35-14.25a18.22 18.22 0 0 0 .16-2.45c0-.44-.07-.91-.1-1.37zm-36.75 67.43c.14-.4.27-.8.4-1.21a3.53 3.53 0 0 0 1.32 1.84 8.35 8.35 0 0 0-1.72-.63zm1-2l-.58.75c.35-1.08.68-2.19 1-3.32l.4-.07a8.59 8.59 0 0 0-.83 2.65zm4.24 5.83a13.83 13.83 0 0 1 1.62 3.62 13.83 13.83 0 0 0-1.63-3.65zm14.5-53.16c-3.58 7.43-6.74 14-13.25 15.61a4.43 4.43 0 0 1-3.48 2.91l-.58.13a7 7 0 0 1-5.42 4.28l-6.12 1-.71.11a4.27 4.27 0 0 1-4.76-3l-4.46.7a1.78 1.78 0 0 1-2-1.48l-.09-.6a1.79 1.79 0 0 1 1.48-2l4.42-.71-.46-2.84-4.42.7a1.79 1.79 0 0 1-2-1.49l-.09-.59a1.79 1.79 0 0 1 1.48-2l4.54-.72a4.26 4.26 0 0 1 3.58-3.87l.71-.12 6.12-1a7 7 0 0 1 6.06 2l.92-.2a4.41 4.41 0 0 1 4.8 2.75c3.09-1.36 5.13-5.32 8.36-12 2.92-6.07 6.29-11.92 11-16.09a17.13 17.13 0 0 0 5.64 3.29c-5.16 3.43-8.51 9.47-11.28 15.24z"/><path class="cls-3" d="M146.69 91.12h-.84c-4.79 0-7.63-3.19-7.63-6.6a6.56 6.56 0 0 1 1.71-4.36 15.3 15.3 0 0 1 5.5 6.69 17.58 17.58 0 0 1 1.26 4.27z"/><path class="cls-4" d="M135.47 92.17a17.13 17.13 0 0 0 5.64 3.29c-5.16 3.61-8.46 9.65-11.23 15.42-3.58 7.43-6.74 14-13.25 15.61a4.5 4.5 0 0 0 .19-2.14l-.5-3.13a5.41 5.41 0 0 0-.25-.92c3.09-1.36 5.13-5.32 8.36-12 2.92-6.11 6.29-11.96 11.04-16.13z"/><path class="cls-2" d="M135.52 73.17v1.6a23.13 23.13 0 0 1-2.5.14 14.57 14.57 0 0 1-6.62-1.38c2.53-1.29 4.76-3.68 4.76-8.41 0-3.81-2.27-7.16-7-7.16a13.65 13.65 0 0 1 8.9-3.57c1.8 5.08 2.46 11.51 2.46 18.78z"/><path class="cls-5" d="M135.51 74.77v1.68c-5.5 3.33-7.54 10.86-16.22 10.86a9.53 9.53 0 0 1-7.48-3.4 11 11 0 0 1-2.21-6.78c0-7.24 5.73-6.26 5.73-13.15 0-1.74-.3-3.45-.3-4.86a13.38 13.38 0 0 1 .13-1.8c.85-5.63 7.54-10.06 13.3-10.42a17.57 17.57 0 0 1 3.35 4.62 24.11 24.11 0 0 1 1.19 2.87 13.65 13.65 0 0 0-8.9 3.57 9.44 9.44 0 0 0-2.83 6.92 9.19 9.19 0 0 0 5.09 8.65 14.57 14.57 0 0 0 6.64 1.38 23.13 23.13 0 0 0 2.51-.14z"/><path class="cls-3" d="M131.15 65.12c0 4.73-2.23 7.12-4.76 8.41a9.19 9.19 0 0 1-5.09-8.65 9.44 9.44 0 0 1 2.83-6.88c4.75 0 7.02 3.31 7.02 7.12z"/><path class="cls-4" d="M165.12 146.6a14.57 14.57 0 0 0-3.85-6.89 13 13 0 0 0-9.95-3.9c-6.48.37-12.07 4.52-18 8.92l-2.24 1.65v-.27c-.57-10 8-14.42 17.85-19.51s21.24-11 20.51-24.14a16.81 16.81 0 0 0-6.17-12.25 18.76 18.76 0 0 0-13-4 26.83 26.83 0 0 0-4.92.73 17.58 17.58 0 0 1 1.26 4.24 15.5 15.5 0 0 1 .21 1.65 18.78 18.78 0 0 1 3.79-.58 12.71 12.71 0 0 1 8.8 2.68 10.69 10.69 0 0 1 3.94 7.9c.52 9.26-7.71 13.51-17.25 18.42-6.67 3.45-13.93 7.19-18 13.23a18.94 18.94 0 0 0-3.14 12 20.33 20.33 0 0 0 .55 3.72 35.6 35.6 0 0 1-14.05 5.5c-.45 1.56-.93 3.09-1.42 4.56a8.07 8.07 0 0 1 2.89 1.33 38.13 38.13 0 0 0 11.3-3.73c1.25-.62 2.45-1.3 3.62-2a25.46 25.46 0 0 0 20.49 11.7h1.15a16.13 16.13 0 0 0 12-6.6 18.77 18.77 0 0 0 3.88-12 12.56 12.56 0 0 0-.25-2.36zm-8.34 10.59a10.36 10.36 0 0 1-7.55 4.24c-5.35.3-12.76-3-16.22-9 1.36-1 2.67-1.94 4-2.89 5.39-4 10-7.47 14.72-7.73A7 7 0 0 1 157 144a8.3 8.3 0 0 1 2.43 5.26 12.77 12.77 0 0 1-2.65 7.93z"/><path class="cls-6" d="M135.37 143.2l-2 1.5-2.24 1.65a11.51 11.51 0 0 0 1.94 6.05c1.34-1 2.63-1.91 3.9-2.85l2.09-1.55a7.91 7.91 0 0 0-3.69-4.8zM125.62 150.14a35.6 35.6 0 0 1-14.05 5.5c-.45 1.56-.93 3.09-1.42 4.56a8.07 8.07 0 0 1 2.89 1.33 38.13 38.13 0 0 0 11.3-3.73c1.21-.6 2.53-1.25 3.67-1.93a18.41 18.41 0 0 1-2.39-5.73z"/><path class="cls-7" d="M116.82 124.35a4.5 4.5 0 0 1-.19 2.14 4.43 4.43 0 0 1-3.48 2.91l-.58.13a7 7 0 0 0 .44-3.8l-.65-4.07a6.93 6.93 0 0 0-2-3.91l.92-.2a4.41 4.41 0 0 1 4.8 2.75 5.41 5.41 0 0 1 .25.92zM105.12 128.79a5.29 5.29 0 0 1-4.09 6l-.71.11a4.27 4.27 0 0 1-4.76-3l4.38-.7a1.8 1.8 0 0 0 1.49-2.05l-.1-.59a1.79 1.79 0 0 0-2-1.49l-4.42.7-.46-2.84 4.43-.71a1.79 1.79 0 0 0 1.48-2l-.09-.6a1.8 1.8 0 0 0-2-1.48l-4.3.68a4.26 4.26 0 0 1 3.58-3.87l.71-.12a5.29 5.29 0 0 1 5.74 4.42z"/><path class="cls-8" d="M112.57 129.53a7 7 0 0 1-5.42 4.28l-6.12 1a5.29 5.29 0 0 0 4.09-6l-1.21-7.59a5.29 5.29 0 0 0-5.74-4.42l6.12-1a7.06 7.06 0 0 1 8.07 5.86l.65 4.07a7 7 0 0 1-.44 3.8z"/><path class="cls-4" d="M70.22 44.64a20.55 20.55 0 0 1 4.55 15.06C73.42 71.67 64 74.6 56.38 77c-7.22 2.21-11.38 3.74-11.94 9.1-1 8.54 3.57 11.43 11.65 15.8a30.43 30.43 0 0 1 10 8.67c-.13.24-.26.47-.4.69a35.7 35.7 0 0 1-3.21 4.44 2.88 2.88 0 0 1-.63-.67 24.58 24.58 0 0 0-8.58-7.81C45.6 103.1 37 98.44 38.43 85.43c1.07-9.55 9.09-12 16.16-14.24 8.25-2.56 13.33-4.66 14.17-12.19a14.45 14.45 0 0 0-3.92-11.36l-.21-.25c1.82-.97 3.68-1.91 5.59-2.75z"/><path class="cls-5" d="M82.89 149.58a6 6 0 0 1 .94 3.15c0 3.75-3.9 6.86-7.46 6.86a5.12 5.12 0 0 1-5.22-5c0-3.67 4.14-7.27 7.75-7.27a4.52 4.52 0 0 1 3.99 2.26zM74.56 130.71c4.15 2.14 5.87 5.1 5.87 7.94 0 4.57-4.45 8.83-10.47 8.83s-8.53-3.75-8.53-8.56a9.32 9.32 0 0 1 2.8-6.94 9.22 9.22 0 0 1 10.33-1.27z"/><path d="M65.67 150c1.92 1 2.67 2.39 2.67 3.74a5.06 5.06 0 0 1-4.86 4.7 3.89 3.89 0 0 1-4-3.83c0-2.42 2-5.05 4.45-5.05a3.6 3.6 0 0 1 1.74.44z" fill="#cbcbcb"/><path class="cls-10" d="M125.99 97.82l-16.9 15.65 4.22-12.01-6.72-2.58 15.21-14.5-3.09 10.75 7.28 2.69z"/><path class="cls-5" d="M58.09 120.37c-3.6 3.6-7.29 7-10 11.4a67.78 67.78 0 0 0-2.2-9.77c2.82-1.82 5.42-4.61 5.91-7.67a36.81 36.81 0 0 1 6.29 6.04z"/><path class="cls-3" d="M39 107.94a38.57 38.57 0 0 1 12.77 6.37c-.49 3.06-3.09 5.85-5.91 7.67A48.41 48.41 0 0 0 39 107.94z"/><path class="cls-6" d="M146.9 92.77a18.78 18.78 0 0 1 3.79-.58 13 13 0 0 1 2.17 0 10.18 10.18 0 0 0 .14-1.64 10 10 0 0 0-.94-4.46h-1.71a26.83 26.83 0 0 0-4.92.73 17.58 17.58 0 0 1 1.26 4.24 15.5 15.5 0 0 1 .21 1.71zM58.85 103.6a12.86 12.86 0 0 0-2.56 5.62A25 25 0 0 1 61.8 115a2.88 2.88 0 0 0 .63.67 35.7 35.7 0 0 0 3.21-4.44c.14-.22.27-.45.4-.69a30.45 30.45 0 0 0-7.19-6.94z"/><path class="cls-11" d="M82.66 162a.71.71 0 0 1-.53-1.19c5.22-5.84 7.65-11.71 7.65-18.5a14.6 14.6 0 0 0-5.44-11.93 20.21 20.21 0 0 0-12.53-3.92 22.14 22.14 0 0 0-11.53 3.11.71.71 0 1 1-.74-1.22 23.61 23.61 0 0 1 12.27-3.31c9.65 0 19.39 5.34 19.39 17.27 0 7.16-2.54 13.34-8 19.45a.69.69 0 0 1-.54.24z"/><path class="cls-11" d="M106.82 174.73a.71.71 0 0 1-.66-.76c0-.58.06-1.16.06-1.72 0-11.17-7.72-12.84-12.31-12.84A29.35 29.35 0 0 0 77.73 165a.7.7 0 0 1-1-.17.72.72 0 0 1 .17-1 30.77 30.77 0 0 1 17-5.81c4.12 0 13.73 1.39 13.73 14.26 0 .59 0 1.2-.06 1.82a.72.72 0 0 1-.75.63z"/><path class="cls-1" d="M91.53 174.78a.64.64 0 0 1-.2 0 .72.72 0 0 1-.48-.89 6.27 6.27 0 0 0 .27-1.82 6.71 6.71 0 0 0-5.27-6.49.71.71 0 0 1-.54-.85.71.71 0 0 1 .85-.54 8.15 8.15 0 0 1 6.38 7.81 7.72 7.72 0 0 1-.33 2.23.7.7 0 0 1-.68.55zM99.47 177.07a.59.59 0 0 1-.25 0 .71.71 0 0 1-.41-.91c.08-.21.15-.41.21-.61 1.3-4.24-.59-8.18-4.92-10.3a.71.71 0 1 1 .62-1.28c4.94 2.41 7.15 7.12 5.66 12-.07.24-.15.47-.24.7a.72.72 0 0 1-.67.4zM112.39 175.18a.58.58 0 0 1-.26-.05.7.7 0 0 1-.4-.92 6 6 0 0 0 .39-1.54 9 9 0 0 0-3.28-7.79.71.71 0 0 1 .89-1.11 10.5 10.5 0 0 1 3.8 9.09 7.53 7.53 0 0 1-.48 1.88.7.7 0 0 1-.66.44zM124.11 173.83a.58.58 0 0 1-.19 0 .72.72 0 0 1-.5-.88 5.56 5.56 0 0 0 .22-1.57 8.78 8.78 0 0 0-3.44-6.41.71.71 0 0 1 .89-1.11 10.12 10.12 0 0 1 4 7.52 7.24 7.24 0 0 1-.27 2 .71.71 0 0 1-.71.45zM129.33 174.44h-.15a.71.71 0 0 1-.55-.85 6.69 6.69 0 0 0 .15-1.44 7.74 7.74 0 0 0-3.51-6.65.71.71 0 1 1 .69-1.25 9.23 9.23 0 0 1 4.24 7.9 8.38 8.38 0 0 1-.18 1.75.71.71 0 0 1-.69.54z"/><path class="cls-11" d="M57.08 171.6c2 1.41 4 2.74 6.09 4a73.68 73.68 0 0 0 80.09-4z"/><path class="cls-10" d="M110.08 147.68l-9.72 17.55.22-11.08-6.26-.31 8.62-16.14.38 9.74 6.76.24z"/><path class="cls-3" d="M146.85 96.77c-6-.14-10.78-2.33-14.3-6.49a.72.72 0 0 1 .09-1 .71.71 0 0 1 1 .09 17.08 17.08 0 0 0 13.24 6 .71.71 0 0 1 .69.73.7.7 0 0 1-.72.67z"/><path class="cls-3" d="M128.27 93.07a.71.71 0 1 1 0-1.42 5.39 5.39 0 0 0 3.13-1.14 5.78 5.78 0 0 0 2.28-4.62 5.45 5.45 0 0 0-.84-2.92.72.72 0 0 1 .23-1 .71.71 0 0 1 1 .22 6.9 6.9 0 0 1 1 3.68 7.18 7.18 0 0 1-2.86 5.76 6.68 6.68 0 0 1-3.94 1.44z"/><path class="cls-2" d="M123.11 163c.64-2.6 2.41-8 2.64-12.46a16.66 16.66 0 0 1-.66-4.74 3 3 0 0 0-2.67-2.07c-4.62 0-11.25 12.11-11.28 14.53 0 4 4.71 3.77 7 10.91"/><path class="cls-8" d="M101.43 129.13l-.1-.59a1.79 1.79 0 0 0-2-1.49l-4.42.7-4.42.71a1.79 1.79 0 0 0-1.48 2l.09.6a1.78 1.78 0 0 0 2 1.48l4.46-.7 4.38-.7a1.8 1.8 0 0 0 1.49-2.01zM90 125.61l4.42-.7 4.43-.71a1.79 1.79 0 0 0 1.48-2l-.09-.6a1.8 1.8 0 0 0-2-1.48l-4.3.68-4.54.72a1.79 1.79 0 0 0-1.48 2l.09.59a1.79 1.79 0 0 0 1.99 1.5z"/><path class="cls-11" d="M118.56 175.59a.71.71 0 0 1-.68-.74v-1c0-6.78-3-11.74-8.06-13.26a.67.67 0 0 1-.45-.42.71.71 0 0 1 0-.62c3.53-6 6-11 6.47-20.67a.71.71 0 0 1 1.42.06c-.41 9.53-2.92 14.87-6.22 20.58 5.1 2 8.23 7.37 8.23 14.33v1a.71.71 0 0 1-.71.74z"/><path class="cls-3" d="M93.54 46.42c6 10.16 12.91 24.34 12.91 36.62 0 15.94-10 24.91-19.64 24.91-6.16 0-13-3.49-17.23-9.09-.49-37.95 22.94-51.98 23.96-52.44z"/><path class="cls-10" d="M94.77 115.16l-7.78-9.55-7.01 4.89-3.52-25.12 8.2 11.37 6.55-4.45 3.56 22.86z"/><path class="cls-1" d="M79.14 55.69c6.1-8.5 18.55-14.12 29.92-14 23.88.29 25.72 17.6 26.79 28.44.19 1.95 7.44-2.62 7.44-6.08 0-17.21-23.68-23.94-41.1-23.94-12.88 0-23.47 9.5-23.47 13.79a3.9 3.9 0 0 0 .42 1.79z"/></svg>