<?xml version="1.0" encoding="utf-8"?>
<svg xmlns="http://www.w3.org/2000/svg" xmlns:xlink="http://www.w3.org/1999/xlink" style="margin: auto; background: rgb(241, 242, 243); display: block; z-index: 1; position: relative; shape-rendering: auto;" width="1525" height="955" preserveAspectRatio="xMidYMid" viewBox="0 0 1525 955">
<g transform=""><path id="path0" d="M 764.5682780348194 864.3646699259046
c 0 24.18485780139054 -5.917571589701939 6.946714474867495 -12.864286064569434 6.946714474867495
S 738.8397059056805 888.5495277272952 738.8397059056805 864.3646699259046
s 5.917571589701939 -6.946714474867495 12.864286064569434 -6.946714474867495
S 764.5682780348194 840.1798121245141 764.5682780348194 864.3646699259046
z" fill="none" stroke="none"></path>
<circle cx="0" cy="0" r="8.207039659809224" fill="#9df871">
  <animateMotion begin="-3.1540074110713077s" dur="13.71s" repeatCount="indefinite">
    <mpath xlink:href="#path0"></mpath>
  </animateMotion>
</circle><path id="path1" d="M 376.52328076280185 869.1148563728619
c 0 27.288941593683113 -6.6770814537735275 7.838313010951532 -14.515394464725059 7.838313010951532
S 347.4924918333518 896.4037979665451 347.4924918333518 869.1148563728619
s 6.6770814537735275 -7.838313010951532 14.515394464725059 -7.838313010951532
S 376.52328076280185 841.8259147791788 376.52328076280185 869.1148563728619
z" fill="none" stroke="none"></path>
<circle cx="0" cy="0" r="5.195632613576282" fill="#51cacc">
  <animateMotion begin="-0.748166989093521s" dur="13.71s" repeatCount="indefinite">
    <mpath xlink:href="#path1"></mpath>
  </animateMotion>
</circle><path id="path2" d="M 441.0954617360557 534.5802913660757
c 0 33.05842723265572 -8.088764110117886 9.495505694486216 -17.5842698046041 9.495505694486216
S 405.9269221268475 567.6387185987314 405.9269221268475 534.5802913660757
s 8.088764110117886 -9.495505694486216 17.5842698046041 -9.495505694486216
S 441.0954617360557 501.52186413341997 441.0954617360557 534.5802913660757
z" fill="none" stroke="none"></path>
<circle cx="0" cy="0" r="6.908721776059065" fill="#51cacc">
  <animateMotion begin="-5.662176921984361s" dur="13.71s" repeatCount="indefinite">
    <mpath xlink:href="#path2"></mpath>
  </animateMotion>
</circle><path id="path3" d="M 630.9133099753903 419.3437234947713
c 0 26.28261267038299 -6.430852036370305 7.549261086173837 -13.980113122544143 7.549261086173837
S 602.9530837303021 445.6263361651543 602.9530837303021 419.3437234947713
s 6.430852036370305 -7.549261086173837 13.980113122544143 -7.549261086173837
S 630.9133099753903 393.0611108243883 630.9133099753903 419.3437234947713
z" fill="none" stroke="none"></path>
<circle cx="0" cy="0" r="5.8924672687962705" fill="#ff708e">
  <animateMotion begin="-1.4045881311312831s" dur="13.71s" repeatCount="indefinite">
    <mpath xlink:href="#path3"></mpath>
  </animateMotion>
</circle><path id="path4" d="M 1097.925690712815 129.7578401442386
c 0 19.80384930457549 -4.8456227021833636 5.6883396938674275 -10.533962396050791 5.6883396938674275
S 1076.8577659207133 149.5616894488141 1076.8577659207133 129.7578401442386
s 4.8456227021833636 -5.6883396938674275 10.533962396050791 -5.6883396938674275
S 1097.925690712815 109.9539908396631 1097.925690712815 129.7578401442386
z" fill="none" stroke="none"></path>
<circle cx="0" cy="0" r="5.781014262174945" fill="#51cacc">
  <animateMotion begin="-1.4430045670200586s" dur="13.71s" repeatCount="indefinite">
    <mpath xlink:href="#path4"></mpath>
  </animateMotion>
</circle><path id="path5" d="M 372.8884478998518 828.1100624785156
c 0 35.39349072126648 -8.660109431799246 10.166215419938245 -18.82632485173749 10.166215419938245
S 335.2357981963769 863.5035531997821 335.2357981963769 828.1100624785156
s 8.660109431799246 -10.166215419938245 18.82632485173749 -10.166215419938245
S 372.8884478998518 792.7165717572491 372.8884478998518 828.1100624785156
z" fill="none" stroke="none"></path>
<circle cx="0" cy="0" r="4.891499887128987" fill="#de9dd6">
  <animateMotion begin="-9.197923294146433s" dur="13.71s" repeatCount="indefinite">
    <mpath xlink:href="#path5"></mpath>
  </animateMotion>
</circle><path id="path6" d="M 560.8469579378747 854.4947648220494
c 0 20.537219796253446 -5.025064418232225 5.898988664881308 -10.924053083113535 5.898988664881308
S 538.9988517716475 875.0319846183029 538.9988517716475 854.4947648220494
s 5.025064418232225 -5.898988664881308 10.924053083113535 -5.898988664881308
S 560.8469579378747 833.957545025796 560.8469579378747 854.4947648220494
z" fill="none" stroke="none"></path>
<circle cx="0" cy="0" r="4.943754327277351" fill="#de9dd6">
  <animateMotion begin="-5.098168116368606s" dur="13.71s" repeatCount="indefinite">
    <mpath xlink:href="#path6"></mpath>
  </animateMotion>
</circle><path id="path7" d="M 128.04841562985933 470.0576061708331
c 0 24.494910944606268 -5.9934356566589795 7.035772292599672 -13.029207949258652 7.035772292599672
S 101.98999973134202 494.55251711543934 101.98999973134202 470.0576061708331
s 5.9934356566589795 -7.035772292599672 13.029207949258652 -7.035772292599672
S 128.04841562985933 445.5626952262268 128.04841562985933 470.0576061708331
z" fill="none" stroke="none"></path>
<circle cx="0" cy="0" r="4.891394723370315" fill="#51cacc">
  <animateMotion begin="-7.112254570912797s" dur="13.71s" repeatCount="indefinite">
    <mpath xlink:href="#path7"></mpath>
  </animateMotion>
</circle><path id="path8" d="M 1152.1171511675677 586.0204965406973
c 0 20.50104933527412 -5.016214199056433 5.888599277153205 -10.904813476209638 5.888599277153205
S 1130.3075242151483 606.5215458759715 1130.3075242151483 586.0204965406973
s 5.016214199056433 -5.888599277153205 10.904813476209638 -5.888599277153205
S 1152.1171511675677 565.5194472054231 1152.1171511675677 586.0204965406973
z" fill="none" stroke="none"></path>
<circle cx="0" cy="0" r="7.6572439904864495" fill="#ff708e">
  <animateMotion begin="-6.507690695177047s" dur="13.71s" repeatCount="indefinite">
    <mpath xlink:href="#path8"></mpath>
  </animateMotion>
</circle><path id="path9" d="M 313.96334613857147 21.387322820646926
c 0 34.993956414582385 -8.562351037610581 10.051455565890684 -18.613806603501267 10.051455565890684
S 276.735732931569 56.381279235229314 276.735732931569 21.387322820646926
s 8.562351037610581 -10.051455565890684 18.613806603501267 -10.051455565890684
S 313.96334613857147 -13.60663359393546 313.96334613857147 21.387322820646926
z" fill="none" stroke="none"></path>
<circle cx="0" cy="0" r="4.612169147051126" fill="#9df871">
  <animateMotion begin="-2.5503787226156955s" dur="13.71s" repeatCount="indefinite">
    <mpath xlink:href="#path9"></mpath>
  </animateMotion>
</circle><path id="path10" d="M 1217.5535492644287 328.24203833547904
c 0 33.52263212462203 -8.202346158152197 9.628841142178667 -17.831187300330864 9.628841142178667
S 1181.891174663767 361.76467046010106 1181.891174663767 328.24203833547904
s 8.202346158152197 -9.628841142178667 17.831187300330864 -9.628841142178667
S 1217.5535492644287 294.719406210857 1217.5535492644287 328.24203833547904
z" fill="none" stroke="none"></path>
<circle cx="0" cy="0" r="4.871275133927732" fill="#e0ff77">
  <animateMotion begin="-10.074709404506825s" dur="13.71s" repeatCount="indefinite">
    <mpath xlink:href="#path10"></mpath>
  </animateMotion>
</circle><path id="path11" d="M 79.27257207957985 301.4810018233746
c 0 22.70843073762076 -5.5563181592050785 6.522634360805963 -12.078952520011041 6.522634360805963
S 55.11466703955776 324.18943256099533 55.11466703955776 301.4810018233746
s 5.5563181592050785 -6.522634360805963 12.078952520011041 -6.522634360805963
S 79.27257207957985 278.77257108575384 79.27257207957985 301.4810018233746
z" fill="none" stroke="none"></path>
<circle cx="0" cy="0" r="7.296013326109691" fill="#de9dd6">
  <animateMotion begin="-5.055629209520664s" dur="13.71s" repeatCount="indefinite">
    <mpath xlink:href="#path11"></mpath>
  </animateMotion>
</circle><path id="path12" d="M 375.02369551751735 252.4766654963997
c 0 22.825511118487828 -5.58496548643851 6.556263831906079 -12.141229318344589 6.556263831906079
S 350.7412368808282 275.3021766148875 350.7412368808282 252.4766654963997
s 5.58496548643851 -6.556263831906079 12.141229318344589 -6.556263831906079
S 375.02369551751735 229.65115437791187 375.02369551751735 252.4766654963997
z" fill="none" stroke="none"></path>
<circle cx="0" cy="0" r="5.347469195696868" fill="#51cacc">
  <animateMotion begin="-5.1736824191912785s" dur="13.71s" repeatCount="indefinite">
    <mpath xlink:href="#path12"></mpath>
  </animateMotion>
</circle><path id="path13" d="M 1442.6868727066021 513.8812699175211
c 0 22.10961366046239 -5.409799087134414 6.350633710983878 -11.760432798118291 6.350633710983878
S 1419.1660071103656 535.9908835779835 1419.1660071103656 513.8812699175211
s 5.409799087134414 -6.350633710983878 11.760432798118291 -6.350633710983878
S 1442.6868727066021 491.7716562570587 1442.6868727066021 513.8812699175211
z" fill="none" stroke="none"></path>
<circle cx="0" cy="0" r="5.966040771573869" fill="#51cacc">
  <animateMotion begin="-3.305137591223519s" dur="13.71s" repeatCount="indefinite">
    <mpath xlink:href="#path13"></mpath>
  </animateMotion>
</circle><path id="path14" d="M 363.562579012386 589.6507382752765
c 0 23.01205703907466 -5.630609701050181 6.60984617079804 -12.240455871848221 6.60984617079804
S 339.08166726868956 612.6627953143511 339.08166726868956 589.6507382752765
s 5.630609701050181 -6.60984617079804 12.240455871848221 -6.60984617079804
S 363.562579012386 566.6386812362018 363.562579012386 589.6507382752765
z" fill="none" stroke="none"></path>
<circle cx="0" cy="0" r="6.789823594206636" fill="#ff708e">
  <animateMotion begin="-4.102036174862345s" dur="13.71s" repeatCount="indefinite">
    <mpath xlink:href="#path14"></mpath>
  </animateMotion>
</circle><path id="path15" d="M 1239.2978500963845 329.95311584069157
c 0 35.454331233947315 -8.674995940221152 10.18369088634657 -18.85868682656772 10.18369088634657
S 1201.5804764432492 365.40744707463887 1201.5804764432492 329.95311584069157
s 8.674995940221152 -10.18369088634657 18.85868682656772 -10.18369088634657
S 1239.2978500963845 294.49878460674427 1239.2978500963845 329.95311584069157
z" fill="none" stroke="none"></path>
<circle cx="0" cy="0" r="6.941373012359555" fill="#9df871">
  <animateMotion begin="-8.474677938122822s" dur="13.71s" repeatCount="indefinite">
    <mpath xlink:href="#path15"></mpath>
  </animateMotion>
</circle><path id="path16" d="M 1173.0503639091237 741.7337143330795
c 0 20.423236080075316 -4.997174785550343 5.866248661298229 -10.863423446848572 5.866248661298229
S 1151.3235170154264 762.1569504131548 1151.3235170154264 741.7337143330795
s 4.997174785550343 -5.866248661298229 10.863423446848572 -5.866248661298229
S 1173.0503639091237 721.3104782530042 1173.0503639091237 741.7337143330795
z" fill="none" stroke="none"></path>
<circle cx="0" cy="0" r="5.283150751427735" fill="#9df871">
  <animateMotion begin="-5.238548966120696s" dur="13.71s" repeatCount="indefinite">
    <mpath xlink:href="#path16"></mpath>
  </animateMotion>
</circle><path id="path17" d="M 858.8170298513467 110.86149139424936
c 0 20.997647160496335 -5.137722177568252 6.031239078014905 -11.168961255583156 6.031239078014905
S 836.4791073401805 131.8591385547457 836.4791073401805 110.86149139424936
s 5.137722177568252 -6.031239078014905 11.168961255583156 -6.031239078014905
S 858.8170298513467 89.86384423375301 858.8170298513467 110.86149139424936
z" fill="none" stroke="none"></path>
<circle cx="0" cy="0" r="7.888093342280577" fill="#de9dd6">
  <animateMotion begin="-3.6989488527791097s" dur="13.71s" repeatCount="indefinite">
    <mpath xlink:href="#path17"></mpath>
  </animateMotion>
</circle></g>
</svg>