<?xml version="1.0" encoding="utf-8"?><svg xml:space="preserve" viewBox="0 0 100 100" y="0" x="0" xmlns="http://www.w3.org/2000/svg" id="圖層_1" version="1.1" width="128px" height="128px" xmlns:xlink="http://www.w3.org/1999/xlink" style="width:100%;height:100%;background-size:initial;background-repeat-y:initial;background-repeat-x:initial;background-position-y:initial;background-position-x:initial;background-origin:initial;background-image:initial;background-color:rgb(255, 255, 255);background-clip:initial;background-attachment:initial;animation-play-state:paused" ><g class="ldl-scale" style="transform-origin:50% 50%;transform:scale(0.8);animation-play-state:paused" ><path fill="#e0e0e0" d="M78.845 81.857h-57.69a7.655 7.655 0 0 1-7.655-7.655V25.798a7.655 7.655 0 0 1 7.655-7.655h57.69a7.655 7.655 0 0 1 7.655 7.655v48.403a7.656 7.656 0 0 1-7.655 7.656z" style="fill:rgb(224, 224, 224);animation-play-state:paused" ></path>
<path fill="#666" d="M32.833 54.765A4.833 4.833 0 0 1 28 49.932V34.441a4.833 4.833 0 0 1 9.666 0v15.491a4.832 4.832 0 0 1-4.833 4.833z" style="fill:rgb(102, 102, 102);animation-play-state:paused" ></path>
<path fill="#666" d="M67.167 54.765a4.833 4.833 0 0 1-4.833-4.833V34.441a4.833 4.833 0 0 1 9.666 0v15.491a4.833 4.833 0 0 1-4.833 4.833z" style="fill:rgb(102, 102, 102);animation-play-state:paused" ></path>
<path fill="#666" d="M55.934 71.777H44.066v-5.934a5.934 5.934 0 0 1 11.868 0v5.934z" style="fill:rgb(102, 102, 102);animation-play-state:paused" ></path>
<metadata xmlns:d="https://loading.io/stock/" style="animation-play-state:paused" ><d:name style="animation-play-state:paused" >plug</d:name>
<d:tags style="animation-play-state:paused" >adapter,socket,wall outlet,receptacle,jack,power,supply,charger,plug</d:tags>
<d:license style="animation-play-state:paused" >by</d:license>
<d:slug style="animation-play-state:paused" >fej5qx</d:slug></metadata></g><!-- generated by https://loading.io/ --></svg>